# xmcd CD database file
#
# Track frame offsets:
#	150
#	12203
#	30403
#	46440
#	60888
#	75383
#	88400
#	99880
#	112415
#	131640
#	150920
#	172708
#
# Disc length: 2514 seconds
#
# Revision: 0
# Processed by: cddbd v1.5.1PL0 Copyright (c) Steve Scherf et al.
# Submitted via: CDex 1.51
#
DISCID=8109d00c
DTITLE=George 'Wild Child' Butler - Keep on doing what you're doing
DYEAR=1969
DGENRE=Blues
TTITLE0=Hippie's playground
TTITLE1=Gravy child
TTITLE2=Can you use a man?
TTITLE3=Horner's corner
TTITLE4=Worried all the time
TTITLE5=Keep on doin' what you're doin'
TTITLE6=Sweet love
TTITLE7=It's all over
TTITLE8=Never had nothin'
TTITLE9=The best of Wild Child
TTITLE10=My baby done put me down
TTITLE11=When I first met you baby
EXTD=YEAR: 1969
EXTT0=
EXTT1=
EXTT2=
EXTT3=
EXTT4=
EXTT5=
EXTT6=
EXTT7=
EXTT8=
EXTT9=
EXTT10=
EXTT11=
PLAYORDER=
